# Blender v2.76 (sub 0) OBJ File: 'open-roof.blend'
# www.blender.org
mtllib open-roof.mtl
o open-roof_Cube
v -7.500000 0.000000 5.000000
v -7.500000 0.250000 5.000000
v -7.500000 0.000000 -5.000000
v -7.500000 0.250000 -5.000000
v 7.500000 0.000000 5.000000
v 7.500000 0.250000 5.000000
v 7.500000 0.000000 -5.000000
v 7.500000 0.250000 -5.000000
v -6.565981 0.250000 -4.000248
v -6.565981 0.250000 3.999752
v 6.434019 0.250000 3.999752
v 6.434020 0.250000 -4.000248
v -6.565981 0.000000 -4.000248
v -6.565981 0.000000 3.999752
v 6.434020 -0.000000 3.999753
v 6.434020 0.000000 -4.000248
v 6.517763 0.234433 4.014352
vt 1.000000 0.000000
vt 1.000000 1.000000
vt 0.000000 1.000000
vt 0.500000 1.000000
vt 0.500000 0.000000
vt 0.066987 0.750000
vt 0.933013 0.250000
vt 0.066987 0.250000
vt 0.933013 0.750000
vt 0.000000 0.000000
vn -1.000000 0.000000 0.000000
vn 0.000000 0.000000 -1.000000
vn 1.000000 0.000000 0.000000
vn 0.000000 0.000000 1.000000
vn 0.000000 1.000000 0.000000
vn -0.000000 -1.000000 -0.000000
usemtl None
s off
f 4/1/1 3/2/1 1/3/1
f 8/1/2 7/2/2 3/3/2
f 6/1/3 5/2/3 7/3/3
f 2/1/4 1/2/4 5/3/4
f 2/4/5 10/5/5 4/6/5
f 4/7/5 9/5/5 12/8/5
f 1/4/6 14/5/6 15/8/6
f 7/9/6 15/5/6 16/8/6
f 10/1/3 14/2/3 13/3/3
f 11/1/2 15/2/2 14/3/2
f 16/1/1 15/2/1 11/3/1
f 9/1/4 13/2/4 16/3/4
f 2/10/1 4/1/1 1/3/1
f 4/10/2 8/1/2 3/3/2
f 8/10/3 6/1/3 7/3/3
f 6/10/4 2/1/4 5/3/4
f 2/4/5 6/9/5 11/7/5
f 9/8/5 4/6/5 10/5/5
f 2/4/5 11/7/5 10/5/5
f 11/6/5 6/4/5 8/9/5
f 8/9/5 4/7/5 12/8/5
f 12/8/5 11/6/5 8/9/5
f 1/4/6 3/9/6 14/5/6
f 15/8/6 5/6/6 1/4/6
f 3/9/6 13/7/6 14/5/6
f 13/6/6 3/4/6 16/8/6
f 7/9/6 5/7/6 15/5/6
f 16/8/6 3/4/6 7/9/6
f 9/10/3 10/1/3 13/3/3
f 10/10/2 11/1/2 14/3/2
f 12/10/1 16/1/1 11/3/1
f 12/10/4 9/1/4 16/3/4
